<svg width="32" height="32" fill="none" xmlns="http://www.w3.org/2000/svg"><path d="M28 32H16a1.333 1.333 0 01-1.333-1.333V28A1.334 1.334 0 0116 26.667h12A1.334 1.334 0 0129.333 28v2.667A1.333 1.333 0 0128 32z" fill="#D6B1FF"/><path d="M28 0H4a1.333 1.333 0 00-1.333 1.333V4A1.333 1.333 0 004 5.333h24A1.333 1.333 0 0029.333 4V1.333A1.334 1.334 0 0028 0z" fill="#2EC5CE"/><path d="M28 8H4a1.333 1.333 0 00-1.333 1.333v13.334A1.333 1.333 0 004 24h24a1.334 1.334 0 001.333-1.333V9.333A1.334 1.334 0 0028 8z" fill="#8C30F5"/></svg>