<svg width="32" height="32" fill="none" xmlns="http://www.w3.org/2000/svg"><g clip-path="url(#clip0)"><path d="M15.208.176L.78 6.916a.56.56 0 00.002 1.019l14.54 6.69c.429.198.925.198 1.354 0l14.54-6.69a.56.56 0 00.003-1.019L16.792.176a1.87 1.87 0 00-1.584 0z" fill="#8C30F5"/><path opacity=".64" d="M31.22 15.568l-2.98-1.392a1.622 1.622 0 00-1.364-.004l-10.199 4.693a1.62 1.62 0 01-1.354 0l-10.2-4.693a1.62 1.62 0 00-1.363.004L.78 15.568a.56.56 0 00.003 1.019l14.54 6.69a1.613 1.613 0 001.354 0l14.54-6.69a.56.56 0 00.003-1.019z" fill="#D6B1FF"/><path d="M31.22 24.144l-2.98-1.392a1.622 1.622 0 00-1.364-.004L16.677 27.44a1.622 1.622 0 01-1.354 0l-10.2-4.693a1.62 1.62 0 00-1.363.004L.78 24.144a.56.56 0 00.003 1.017l14.54 6.691c.429.197.925.197 1.354 0l14.54-6.69a.56.56 0 00.003-1.018z" fill="#2EC5CE"/></g><defs><clipPath id="clip0"><path fill="#fff" d="M0 0h32v32H0z"/></clipPath></defs></svg>