<svg width="32" height="32" fill="none" xmlns="http://www.w3.org/2000/svg"><path d="M6.667 1.333h-4a1.333 1.333 0 00-1.334 1.334v26.666a1.333 1.333 0 001.334 1.334h4V1.333z" fill="#D6B1FF"/><path d="M9.333 30.667h13.334V1.333H9.333v29.334zM16 25.333a1.333 1.333 0 110-2.666 1.333 1.333 0 010 2.666zm0-18.666a1.333 1.333 0 110 2.667 1.333 1.333 0 010-2.667zm0 8a1.334 1.334 0 110 2.667 1.334 1.334 0 010-2.667z" fill="#8C30F5"/><path d="M29.333 1.333h-4v29.334h4a1.334 1.334 0 001.334-1.334V2.667a1.334 1.334 0 00-1.334-1.334z" fill="#2EC5CE"/></svg>