<svg width="32" height="32" fill="none" xmlns="http://www.w3.org/2000/svg"><path d="M12 13.333H2.667A1.333 1.333 0 011.333 12V2.667a1.333 1.333 0 011.334-1.334H12a1.333 1.333 0 011.333 1.334V12A1.333 1.333 0 0112 13.333zm0 17.333H2.667a1.334 1.334 0 01-1.334-1.333V20a1.333 1.333 0 011.334-1.334H12A1.333 1.333 0 0113.333 20v9.333A1.333 1.333 0 0112 30.667z" fill="#8C30F5"/><path d="M17.333 2.667h13.334v2.666H17.333V2.666zM30.667 20H17.333v2.667h13.334V20z" fill="#2EC5CE"/><path d="M30.667 26.666H17.333v2.667h13.334v-2.666zm0-17.333H17.333V12h13.334V9.333z" fill="#D6B1FF"/></svg>