<svg width="112" height="26" fill="none" xmlns="http://www.w3.org/2000/svg"><g clip-path="url(#clip0)"><path d="M40.002 9.248v1.473h.045c.53-.789 1.41-1.718 3.361-1.718 1.518 0 2.683.773 3.182 1.94h.045c.426-.59.915-1.037 1.462-1.353.648-.375 1.369-.59 2.277-.59 2.055 0 3.874 1.337 3.874 4.707V20.1h-3.133v-5.946c0-1.708-.616-2.696-1.899-2.696-.939 0-1.621.593-1.881 1.324a2.81 2.81 0 00-.132.88v6.441H44.07v-6.19c0-1.45-.592-2.458-1.857-2.458-1.012 0-1.646.75-1.906 1.392-.111.274-.146.59-.146.886V20.1h-3.136V9.248h2.977zm30.416 0v2.047h.086c.575-1.565 1.94-2.292 3.14-2.292.301 0 .468.023.71.069v2.842c-.287-.039-.554-.078-.928-.078-1.359 0-2.305.743-2.544 1.907a3.8 3.8 0 00-.07.802v5.558h-3.215V9.248h2.82zm8.303-3.596V9.07h2.716v2.764h-2.716v4.078c0 1.32.357 1.96 1.417 1.96.499 0 .866-.06 1.185-.134l.042 2.291c-.426.15-1.334.313-2.256.313-1.085 0-1.99-.355-2.54-.906-.631-.63-.922-1.66-.922-3.126V5.652h3.074zM34.842 20.1h-3.119V5.652h3.119V20.1zm-8.317-3.876c0 .199-.017.407-.076.587-.243.753-1.071 1.389-2.104 1.389-.863 0-1.549-.46-1.549-1.435 0-1.49 1.747-1.904 3.733-1.894v1.353h-.004zm3.115-2.598c0-2.461-1.115-4.623-4.89-4.623-1.936 0-3.475.512-4.314.969l.614 1.975c.766-.456 1.989-.831 3.146-.831 1.917-.003 2.228 1.02 2.228 1.675v.157c-4.175-.007-6.812 1.353-6.812 4.124 0 1.692 1.34 3.276 3.676 3.276 1.439 0 2.637-.538 3.358-1.402h.07s.478 1.874 3.105 1.157c-.139-.782-.184-1.613-.184-2.614v-3.863h.003zM3.945 5.652c.322 1.53 1.237 5.969 1.237 5.969.384 1.826.738 3.74 1.005 5.252h.048c.26-1.607.669-3.13 1.106-5.014l1.542-6.207h3.413l1.442 6.367c.378 1.77.679 3.136.918 4.782h.045c.26-1.662.6-3.084.97-4.903l1.387-6.246h3.274L16.274 20.1c-2.585.531-3.576-.447-3.93-1.998-.353-1.555-1.046-4.512-1.046-4.512-.357-1.62-.634-2.761-.828-4.424h-.049c-.277 1.647-.568 2.8-.998 4.42l-1.701 6.517c-2.64.496-3.556-.238-4.062-2.23C3.224 16.17.5 5.655.5 5.655h3.445v-.003zm58.454 10.572c0 .199-.018.407-.077.587-.242.753-1.07 1.389-2.103 1.389-.863 0-1.55-.46-1.55-1.435 0-1.49 1.748-1.904 3.733-1.894v1.353H62.4zm3.115-2.598c0-2.461-1.116-4.623-4.89-4.623-1.937 0-3.475.512-4.314.969l.613 1.975c.766-.456 1.99-.831 3.147-.831 1.913-.003 2.228 1.02 2.228 1.675v.157c-4.172-.007-6.81 1.353-6.81 4.124 0 1.692 1.345 3.276 3.678 3.276 1.434 0 2.637-.538 3.354-1.402h.073s.478 1.874 3.105 1.157c-.139-.782-.184-1.613-.184-2.614v-3.863z" fill="#041E42"/><path d="M94.08 15.124c.308.528.287 1.117-.041 1.386l-5.672 3.918c-.59.337-1.475-.072-1.976-.926-.504-.858-.414-1.815.176-2.152l6.28-2.88c.394-.15.926.127 1.233.654zm7.465 0c.311-.527.839-.8 1.233-.657l6.283 2.88c.591.337.677 1.293.176 2.151-.504.855-1.392 1.26-1.979.926l-5.672-3.918c-.324-.265-.349-.858-.041-1.382zm-3.734 2.124c.618 0 1.126.313 1.195.725l.611 6.802c0 .674-.797 1.225-1.803 1.225-1.001 0-1.803-.552-1.803-1.226l.608-6.8c.07-.413.577-.726 1.192-.726zm3.775-7.754l5.672-3.922c.587-.337 1.475.068 1.979.926.501.858.415 1.815-.176 2.152l-6.283 2.883c-.394.143-.926-.13-1.233-.657-.308-.528-.283-1.117.041-1.382zm-8.739 2.039l-6.28-2.883c-.587-.337-.677-1.294-.176-2.152.5-.858 1.389-1.263 1.976-.926l5.672 3.922c.328.262.349.854.041 1.382-.307.527-.84.8-1.233.657zm3.772-3.506l-.608-6.802C96.011.551 96.81 0 97.814 0c1.006 0 1.803.551 1.803 1.225l-.611 6.802c-.07.408-.577.725-1.195.725-.615 0-1.123-.317-1.192-.725zM110.771 20.4v-.17h.156c.051 0 .086.034.086.085a.083.083 0 01-.086.085h-.156zm-.128.31c0 .017.014.034.035.034h.066a.037.037 0 00.034-.034v-.194h.107l.087.204c.006.014.017.024.031.024h.079a.033.033 0 00.031-.047 10.055 10.055 0 01-.093-.191.188.188 0 00.131-.19c0-.13-.107-.205-.214-.205h-.259c-.017 0-.035.017-.035.034v.565zm-.279-.282c0-.276.228-.5.507-.5.28 0 .508.22.508.5 0 .275-.224.5-.508.5a.502.502 0 01-.507-.5zm-.121 0c0 .34.279.62.628.62.346 0 .629-.28.629-.62 0-.34-.283-.62-.629-.62a.624.624 0 00-.628.62z" fill="#FFC124"/></g><defs><clipPath id="clip0"><path fill="#fff" transform="translate(.5)" d="M0 0h111v26H0z"/></clipPath></defs></svg>