<svg width="134" height="40" fill="none" xmlns="http://www.w3.org/2000/svg"><path fill-rule="evenodd" clip-rule="evenodd" d="M84.104 12.227l-2.179-3.654-3.867 1.827-2.18-3.665-3.867 1.838-2.168-3.676-3.867 1.838-2.179-3.665-3.867 1.838-2.168-3.676-3.879 1.838-8.203 26.508 9.968 3.027a5.249 5.249 0 012.238-2.881 5.317 5.317 0 016.801 1.01 5.22 5.22 0 011.289 3.407v.108a4.29 4.29 0 01-.174 1.427l10.131 3.08 8.171-26.529z" fill="#D61920"/><path fill-rule="evenodd" clip-rule="evenodd" d="M54.232 27.395a1.07 1.07 0 01-.645-.366 1.055 1.055 0 01-.248-.694V13.362a1.065 1.065 0 01.67-1.002c.133-.053.276-.08.419-.079h9.445a4.267 4.267 0 013 1.224 4.204 4.204 0 011.25 2.97v9.86a1.074 1.074 0 01-.398.833 1.093 1.093 0 01-.9.227 1.07 1.07 0 01-.637-.369 1.054 1.054 0 01-.245-.69v-9.85c0-.544-.218-1.067-.606-1.452a2.078 2.078 0 00-1.464-.602h-2.059v11.892a1.072 1.072 0 01-.327.779 1.08 1.08 0 01-.958.292 1.07 1.07 0 01-.645-.366 1.054 1.054 0 01-.248-.694V14.432h-4.119v11.892a1.074 1.074 0 01-.389.835 1.092 1.092 0 01-.896.236zm15.71 5.654a1.069 1.069 0 01-.649-.37 1.054 1.054 0 01-.245-.7 1.093 1.093 0 011.079-1.081c.926 0 1.721-.584 1.982-1.46l1.123-3.708-3.672-12.184a1.073 1.073 0 01.342-1.16c.111-.092.24-.16.377-.202a1.12 1.12 0 01.82.089c.25.133.44.356.531.624l2.724 9.081 2.767-9.08c.13-.498.686-.833 1.253-.725l.076.01c.588.184.915.8.74 1.374l-3.78 12.497-1.198 4a4.324 4.324 0 01-1.525 2.162 4.27 4.27 0 01-2.55.843 1.054 1.054 0 01-.195-.01z" fill="#FEFEFE"/><path fill-rule="evenodd" clip-rule="evenodd" d="M3.355 25.027h2.136a2.15 2.15 0 001.517-.624c.403-.4.629-.94.629-1.506V16.66a2.115 2.115 0 00-.621-1.51 2.148 2.148 0 00-1.514-.631H3.355v10.508zm-1.34 2.227a1.113 1.113 0 01-.668-.381 1.097 1.097 0 01-.258-.722V6.778a1.106 1.106 0 01.327-.8 1.123 1.123 0 011.003-.324c.544.108.936.562.936 1.114v5.513h2.136a4.43 4.43 0 013.119 1.275 4.366 4.366 0 011.293 3.093v6.238a4.361 4.361 0 01-1.292 3.085 4.43 4.43 0 01-3.11 1.282H2.223c-.072.004-.145 0-.217-.01l.01.01zm15.568-12.822a2.21 2.21 0 00-1.195.124 2.125 2.125 0 00-1.164 1.155 2.09 2.09 0 00-.157.819v6.497a2.105 2.105 0 00.625 1.51 2.138 2.138 0 001.521.62c.57 0 1.115-.225 1.518-.624.402-.4.628-.941.628-1.506v-6.486a2.14 2.14 0 00-1.776-2.109zm-1.143 12.92a4.409 4.409 0 01-2.613-1.499 4.348 4.348 0 01-1.026-2.815V16.54a4.296 4.296 0 011.296-3.092 4.394 4.394 0 013.116-1.276c1.167 0 2.287.46 3.112 1.28a4.35 4.35 0 011.29 3.088v6.497c0 1.167-.458 2.27-1.297 3.102a4.382 4.382 0 01-3.105 1.276c-.26.001-.518-.02-.774-.065zm12.855-12.909a2.2 2.2 0 00-1.195.124 2.125 2.125 0 00-1.164 1.155 2.11 2.11 0 00-.158.819v6.497a2.107 2.107 0 00.626 1.509 2.135 2.135 0 001.52.62 2.15 2.15 0 001.521-.62 2.116 2.116 0 00.626-1.51v-6.496a2.138 2.138 0 00-1.776-2.098zM28.15 27.351a4.408 4.408 0 01-2.606-1.5 4.347 4.347 0 01-1.022-2.813V16.54a4.35 4.35 0 01.416-1.844 4.384 4.384 0 011.159-1.498 4.426 4.426 0 013.589-.961 4.409 4.409 0 012.616 1.49 4.348 4.348 0 011.034 2.813v6.497a4.307 4.307 0 01-1.308 3.102 4.381 4.381 0 01-3.105 1.276c-.261 0-.523-.021-.773-.065zm9.01.044a1.113 1.113 0 01-.67-.382 1.098 1.098 0 01-.257-.721V6.778c0-.302.11-.594.327-.8a1.124 1.124 0 01.992-.302c.544.086.948.551.948 1.102v11.546l5.207-5.794a1.164 1.164 0 011.582-.1 1.114 1.114 0 01.38 1.066c-.039.195-.13.377-.263.526l-3.932 4.356 4.063 7.384a1.074 1.074 0 01.11.832 1.102 1.102 0 01-.556.67 1.128 1.128 0 01-.763.13 1.128 1.128 0 01-.785-.54l-3.66-6.681-1.394 1.524v4.595c0 .298-.12.584-.332.795-.213.21-.5.33-.801.33-.077 0-.142 0-.218-.023h.021zm49.906-.011a4.19 4.19 0 01-1.703-.692 4.154 4.154 0 01-1.238-1.352 1.139 1.139 0 01-.11-.864c.088-.281.273-.52.524-.67.232-.127.502-.169.762-.12.327.055.621.25.785.541.294.497.762.822 1.34.919a2.02 2.02 0 001.677-.476c.436-.4.654-.973.6-1.535a1.826 1.826 0 00-.817-1.449l-3.05-2.15a4.11 4.11 0 01-1.213-1.321 4.074 4.074 0 01-.53-1.707 3.97 3.97 0 01.292-1.775 4 4 0 011.047-1.468 4.105 4.105 0 013.356-1.049c1.285.216 2.331.952 2.93 1.99a1.138 1.138 0 01-.414 1.535c-.23.131-.5.177-.762.13a1.127 1.127 0 01-.785-.541 1.81 1.81 0 00-1.285-.865 1.788 1.788 0 00-1.525.443 1.838 1.838 0 00-.578 1.449c.022.53.327 1.048.784 1.351l3.05 2.108a4.102 4.102 0 011.766 3.168c.05.623-.047 1.25-.283 1.83a4.023 4.023 0 01-1.079 1.51 4.258 4.258 0 01-3.464 1.081l-.088-.021h.011zm8.748.032a1.135 1.135 0 01-.67-.383 1.12 1.12 0 01-.266-.72V6.8a1.107 1.107 0 01.697-1.042 1.13 1.13 0 01.436-.082l.217.01c.545.109.915.552.915 1.114v5.513h2.147a4.398 4.398 0 013.115 1.276 4.33 4.33 0 011.286 3.092v9.622a1.104 1.104 0 01-.399.857 1.126 1.126 0 01-.919.245 1.128 1.128 0 01-.937-1.113V16.67a2.105 2.105 0 00-.629-1.502 2.137 2.137 0 00-1.517-.617h-2.147v11.752a1.105 1.105 0 01-.402.862 1.124 1.124 0 01-.927.24v.011zm15.558-12.962a2.155 2.155 0 00-1.755.462 2.098 2.098 0 00-.762 1.635v6.498a2.107 2.107 0 00.621 1.505 2.145 2.145 0 001.514.624 2.145 2.145 0 001.985-1.31c.108-.26.163-.538.161-.82v-6.507a2.12 2.12 0 00-1.775-2.098l.011.011zm-1.155 12.886a4.399 4.399 0 01-2.605-1.494 4.334 4.334 0 01-1.023-2.808V16.54a4.353 4.353 0 011.571-3.35 4.423 4.423 0 013.593-.964 4.41 4.41 0 012.619 1.495 4.343 4.343 0 011.03 2.819v6.497a4.278 4.278 0 01-.339 1.677 4.322 4.322 0 01-.968 1.415 4.41 4.41 0 01-3.878 1.21zm22.585-13.783a1.09 1.09 0 00-.109-.822 1.177 1.177 0 00-.741-.519 1.118 1.118 0 00-1.297.822c0 .054-1.22 4.93-2.178 8.638l-.022.075-.022-.075-2.179-8.627a1.046 1.046 0 00-.304-.553 1.06 1.06 0 00-.567-.28 1.198 1.198 0 00-.196-.021c-.502 0-.937.345-1.079.843-.011.054-1.231 4.93-2.179 8.638l-.022.075-.021-.075c-.926-3.708-2.179-8.584-2.179-8.638a1.103 1.103 0 00-.883-.822 1.117 1.117 0 00-1.267.8c-.047.177-.05.363-.007.54l3.279 13.006a1.137 1.137 0 001.078.843c.534 0 .959-.346 1.068-.843l2.179-8.638.033-.075.021.075c.959 3.752 2.179 8.649 2.179 8.649a1.146 1.146 0 001.068.832 1.058 1.058 0 001.078-.843l3.269-13.005z" fill="#333545"/></svg>