<svg width="123" height="26" fill="none" xmlns="http://www.w3.org/2000/svg"><g clip-path="url(#clip0)"><path d="M43.564 14.975l-.728 2.056h-.06a14.582 14.582 0 00-.707-2.015L38.17 5.24h-3.817v15.58h2.525v-9.614c0-.604 0-1.29-.02-2.136-.02-.424-.061-.746-.081-.988h.06c.122.605.263 1.048.364 1.33l4.686 11.368h1.778L48.31 9.312c.101-.262.202-.786.303-1.23h.06c-.06 1.149-.1 2.177-.12 2.802v9.876h2.686V5.2h-3.676l-4 9.775zm10.22-5.381h2.626V20.76h-2.626V9.594zm1.333-4.716c-.444 0-.808.16-1.11.443a1.429 1.429 0 00-.465 1.088c0 .424.161.786.464 1.069a1.56 1.56 0 001.111.423c.445 0 .828-.161 1.111-.423.303-.283.465-.645.465-1.069 0-.423-.162-.786-.465-1.088-.263-.282-.646-.443-1.11-.443zm10.605 4.615a7.4 7.4 0 00-1.475-.161c-1.192 0-2.282.262-3.191.786-.91.524-1.636 1.25-2.101 2.156-.485.928-.727 1.996-.727 3.225 0 1.068.242 2.016.707 2.882.464.847 1.11 1.532 1.98 1.996.827.463 1.797.705 2.888.705 1.252 0 2.323-.262 3.17-.746l.021-.02v-2.418l-.101.08a4.515 4.515 0 01-1.272.665c-.465.162-.89.242-1.253.242-1.05 0-1.878-.302-2.464-.967-.606-.645-.909-1.532-.909-2.64 0-1.15.303-2.056.93-2.721.625-.665 1.454-1.008 2.463-1.008.849 0 1.717.282 2.505.846l.101.081v-2.56l-.02-.02c-.344-.141-.727-.302-1.252-.403zm8.665-.08c-.647 0-1.253.2-1.778.624-.444.363-.747.887-1.01 1.512h-.02V9.594h-2.626V20.76h2.626v-5.704c0-.968.202-1.774.647-2.358.444-.605 1.01-.907 1.696-.907.243 0 .485.06.788.1.283.081.485.162.626.262l.101.081v-2.62l-.06-.02c-.182-.121-.546-.182-.99-.182zm7.15-.061c-1.838 0-3.313.544-4.343 1.612-1.05 1.069-1.555 2.54-1.555 4.394 0 1.733.525 3.144 1.535 4.172 1.01 1.008 2.384 1.532 4.1 1.532 1.798 0 3.232-.544 4.262-1.633 1.05-1.088 1.556-2.54 1.556-4.333 0-1.774-.485-3.184-1.475-4.212-.95-1.028-2.343-1.532-4.08-1.532zm2.1 8.586c-.484.625-1.252.927-2.2.927-.95 0-1.718-.302-2.263-.967-.546-.625-.808-1.532-.808-2.681 0-1.19.283-2.096.808-2.741.545-.645 1.292-.968 2.242-.968.929 0 1.656.303 2.181.928.526.624.808 1.531.808 2.72-.04 1.21-.262 2.157-.767 2.782zm9.312-3.709c-.828-.342-1.353-.604-1.595-.826-.202-.202-.303-.484-.303-.846 0-.303.12-.605.424-.807.303-.201.646-.302 1.151-.302.444 0 .91.08 1.353.202.445.12.849.302 1.172.544l.101.08V9.815l-.06-.02A7.3 7.3 0 0094 9.453a8.2 8.2 0 00-1.293-.121c-1.252 0-2.282.302-3.09.967-.808.625-1.192 1.472-1.192 2.46 0 .523.08.987.262 1.37.182.383.445.745.808 1.048.364.282.89.604 1.616.907.606.262 1.07.463 1.353.625.283.16.465.342.606.483.102.162.162.363.162.625 0 .746-.566 1.109-1.717 1.109-.444 0-.909-.081-1.454-.262a5.625 5.625 0 01-1.475-.746l-.1-.08v2.559l.06.02c.384.181.848.302 1.414.443.566.101 1.07.182 1.515.182 1.353 0 2.464-.303 3.252-.968.808-.645 1.232-1.47 1.232-2.54 0-.745-.202-1.41-.646-1.914a8.195 8.195 0 00-2.364-1.39zm9.938-4.877c-1.838 0-3.313.544-4.343 1.612-1.03 1.069-1.555 2.54-1.555 4.394 0 1.733.525 3.144 1.535 4.172 1.01 1.008 2.384 1.532 4.1 1.532 1.798 0 3.232-.544 4.262-1.633 1.051-1.088 1.556-2.54 1.556-4.333 0-1.774-.485-3.184-1.475-4.212-.949-1.028-2.343-1.532-4.08-1.532zm2.081 8.586c-.485.625-1.253.927-2.202.927-.97 0-1.717-.302-2.262-.967-.546-.625-.808-1.532-.808-2.681 0-1.19.282-2.096.808-2.741.545-.645 1.292-.968 2.242-.968.909 0 1.656.303 2.181.928.525.624.808 1.531.808 2.72 0 1.21-.263 2.157-.767 2.782zm17.512-6.188V9.594h-2.646V6.288l-.081.02-2.505.746-.06.02v2.52h-3.959V8.183c0-.645.161-1.149.444-1.471.283-.323.707-.484 1.232-.484.364 0 .748.08 1.172.262l.101.06V4.273l-.061-.02c-.363-.121-.848-.202-1.474-.202-.788 0-1.475.182-2.101.484a3.498 3.498 0 00-1.434 1.43c-.343.606-.525 1.29-.525 2.077v1.552h-1.838v2.136h1.838v9.03h2.646v-9.01h3.959v5.745c0 2.358 1.111 3.547 3.333 3.547.363 0 .747-.06 1.11-.121.384-.08.667-.181.829-.262l.02-.02v-2.157l-.101.08a1.696 1.696 0 01-.546.243c-.202.06-.383.08-.525.08-.525 0-.888-.12-1.151-.423-.242-.282-.364-.746-.364-1.431v-5.28h2.687z" fill="#737373"/><path d="M.5 0h12.382v12.355H.5V0z" fill="#F25022"/><path d="M14.174 0h12.382v12.355H14.174V0z" fill="#7FBA00"/><path d="M.5 13.645h12.382V26H.5V13.645z" fill="#00A4EF"/><path d="M14.174 13.645h12.382V26H14.174V13.645z" fill="#FFB900"/></g><defs><clipPath id="clip0"><path fill="#fff" transform="translate(.5)" d="M0 0h122v26H0z"/></clipPath></defs></svg>