<svg width="85" height="24" fill="none" xmlns="http://www.w3.org/2000/svg"><g clip-path="url(#clip0)"><path d="M9.597 3.973v6.77H3.428v-6.77H.5v16.16h2.928v-6.55h6.169v6.55h2.928V3.973H9.597zm12.3 10.937c0 .647-.255 1.268-.71 1.726a2.413 2.413 0 01-3.425 0 2.452 2.452 0 01-.71-1.727V7.987h-2.778v6.922a5.26 5.26 0 001.522 3.703 5.175 5.175 0 003.674 1.534c1.378 0 2.7-.552 3.674-1.534a5.258 5.258 0 001.521-3.703V7.987h-2.768v6.922zM42.479 8.7c0-1.418.93-1.868 1.951-1.868.822 0 1.908.63 2.618 1.396l1.82-2.161c-.908-1.238-2.75-2.094-4.259-2.094-3.013 0-5.192 1.779-5.192 4.727 0 5.472 6.634 3.736 6.634 6.798 0 .944-.91 1.778-1.951 1.778-1.643 0-2.175-.81-2.93-1.665l-2.019 2.115c1.292 1.598 2.884 2.41 4.793 2.41 2.862 0 5.165-1.8 5.165-4.615 0-6.074-6.635-4.187-6.635-6.82m41.049 8.85c-1.642 0-2.108-.715-2.108-1.812v-4.852h2.551V8.43h-2.55V5.185l-2.817 1.274v9.883c0 2.528 1.73 3.802 4.103 3.802.372.007.744-.023 1.11-.09l.688-2.549c-.31.022-.666.043-.977.043M32.47 8.068c-1.375 0-2.335.403-3.264 1.32V4.07h-2.782v9.858c0 3.691 2.648 6.22 5.622 6.22 3.3 0 6.203-2.573 6.203-6.039 0-3.421-2.672-6.04-5.778-6.04zm-.017 9.258a3.139 3.139 0 01-1.753-.537 3.176 3.176 0 01-1.163-1.427 3.205 3.205 0 01.684-3.468 3.133 3.133 0 013.44-.69c.577.241 1.07.65 1.417 1.172a3.2 3.2 0 01-.393 4.018 3.144 3.144 0 01-2.232.932zm30.227-3.364c0-3.471-2.898-6.038-6.203-6.038-2.975 0-5.622 2.528-5.622 6.219v9.864h2.782v-5.326c.927.917 1.888 1.32 3.263 1.32 3.106 0 5.778-2.616 5.778-6.04h.001zm-2.635-.035a3.2 3.2 0 01-.532 1.768c-.347.523-.84.93-1.417 1.172a3.134 3.134 0 01-3.44-.69 3.205 3.205 0 01-.684-3.467 3.178 3.178 0 011.163-1.428 3.139 3.139 0 013.985.395c.592.597.925 1.406.925 2.25z" fill="#33475B"/><path d="M71.667 7.788V4.97c.37-.174.682-.45.902-.797a2.19 2.19 0 00.34-1.159V2.95c0-.575-.228-1.127-.631-1.534a2.144 2.144 0 00-1.522-.635h-.065a2.15 2.15 0 00-1.522.635c-.403.407-.63.959-.63 1.534v.065c.002.411.12.813.34 1.16.22.346.532.622.901.796v2.817a6.072 6.072 0 00-2.898 1.286l-7.665-6.018a2.46 2.46 0 00.086-.609 2.458 2.458 0 00-.406-1.359A2.43 2.43 0 0057.81.186a2.407 2.407 0 00-2.644.526 2.462 2.462 0 00-.53 2.663c.184.447.494.83.893 1.098.398.27.867.413 1.346.414.42-.002.831-.115 1.194-.327l7.549 5.92a6.198 6.198 0 00.093 6.941l-2.296 2.314a1.96 1.96 0 00-.573-.094 1.98 1.98 0 00-1.106.339c-.328.22-.583.534-.733.9a2.023 2.023 0 00.432 2.188 1.987 1.987 0 002.17.435 2.009 2.009 0 001.229-1.853 1.996 1.996 0 00-.093-.579l2.272-2.289a6.077 6.077 0 005.284 1.08 6.108 6.108 0 002.45-1.297 6.17 6.17 0 001.633-2.252 6.214 6.214 0 00-.283-5.427 6.155 6.155 0 00-1.859-2.067 6.096 6.096 0 00-2.571-1.031zm-.941 9.264a3.125 3.125 0 01-1.745-.535 3.163 3.163 0 01-1.156-1.421 3.191 3.191 0 01.682-3.45 3.119 3.119 0 013.424-.686 3.138 3.138 0 011.41 1.165 3.185 3.185 0 01-.39 3.998 3.13 3.13 0 01-2.222.928" fill="#FF7A59"/></g><defs><clipPath id="clip0"><path fill="#fff" transform="translate(.5)" d="M0 0h84v24H0z"/></clipPath></defs></svg>