<svg width="81" height="24" fill="none" xmlns="http://www.w3.org/2000/svg"><g clip-path="url(#clip0)"><path d="M59.991 23.282l6.672-7.39-6.672-7.39h7.04l3.304 3.59 3.182-3.59h6.793l-6.64 7.36 6.731 7.42h-7.068l-3.274-3.62-3.244 3.62h-6.824zm0-18.092h-7.556v3.312h7.556v4.993h-7.556v4.583h7.556v5.204h-13.11V0h13.11v5.19z" fill="#F60"/><path d="M41.35 0v9.528h-.06c-1.224-1.387-2.754-1.87-4.53-1.87-3.635 0-6.374 2.437-7.335 5.658-1.097-3.549-3.924-5.724-8.117-5.724-3.404 0-6.093 1.507-7.496 3.962V8.503H6.774V5.19h7.68V0H.5v23.282h6.274v-9.787h6.253a9.148 9.148 0 00-.286 2.301c0 4.857 3.764 8.264 8.567 8.264 4.04 0 6.702-1.869 8.11-5.277H24.04c-.727 1.024-1.279 1.328-2.733 1.328-1.686 0-3.14-1.45-3.14-3.169h10.948c.475 3.858 3.523 7.184 7.707 7.184a5.38 5.38 0 004.467-2.352h.06v1.507h5.531V0h-5.53zM18.344 13.565c.35-1.479 1.513-2.445 2.965-2.445 1.6 0 2.704.936 2.994 2.445h-5.959zm19.652 6.172c-2.039 0-3.306-1.872-3.306-3.827 0-2.09 1.102-4.1 3.306-4.1 2.285 0 3.195 2.01 3.195 4.1 0 1.981-.965 3.827-3.195 3.827z" fill="#652C8F"/></g><defs><clipPath id="clip0"><path fill="#fff" transform="translate(.5)" d="M0 0h80v24H0z"/></clipPath></defs></svg>