<svg width="85" height="28" fill="none" xmlns="http://www.w3.org/2000/svg"><g clip-path="url(#clip0)"><path d="M36.246 14.36c0 3.886-3.085 6.75-6.871 6.75-3.786 0-6.871-2.864-6.871-6.75 0-3.915 3.085-6.751 6.871-6.751 3.786 0 6.871 2.836 6.871 6.75zm-3.008 0c0-2.43-1.788-4.091-3.863-4.091s-3.863 1.661-3.863 4.09c0 2.405 1.788 4.09 3.863 4.09s3.863-1.689 3.863-4.09z" fill="#EA4335"/><path d="M51.07 14.36c0 3.886-3.085 6.75-6.871 6.75-3.787 0-6.872-2.864-6.872-6.75 0-3.912 3.085-6.751 6.872-6.751 3.786 0 6.87 2.836 6.87 6.75zm-3.008 0c0-2.43-1.788-4.091-3.863-4.091-2.076 0-3.864 1.661-3.864 4.09 0 2.405 1.788 4.09 3.864 4.09 2.075 0 3.863-1.689 3.863-4.09z" fill="#FBBC05"/><path d="M65.276 8.017v12.119c0 4.985-2.984 7.021-6.51 7.021-3.32 0-5.318-2.188-6.072-3.978l2.619-1.074c.466 1.098 1.609 2.395 3.45 2.395 2.257 0 3.656-1.373 3.656-3.956v-.971h-.105c-.673.818-1.97 1.534-3.607 1.534-3.425 0-6.563-2.94-6.563-6.723 0-3.81 3.138-6.775 6.563-6.775 1.634 0 2.93.715 3.607 1.51h.105v-1.1h2.857v-.002zm-2.644 6.367c0-2.377-1.609-4.115-3.656-4.115-2.076 0-3.814 1.738-3.814 4.114 0 2.353 1.738 4.067 3.814 4.067 2.047 0 3.656-1.714 3.656-4.066z" fill="#4285F4"/><path d="M69.985.913v19.783h-2.933V.913h2.933z" fill="#34A853"/><path d="M81.418 16.58l2.335 1.535c-.754 1.099-2.57 2.992-5.707 2.992-3.892 0-6.797-2.965-6.797-6.75 0-4.015 2.93-6.751 6.46-6.751 3.555 0 5.293 2.787 5.861 4.294l.312.767-9.156 3.737c.7 1.355 1.791 2.046 3.32 2.046 1.531 0 2.594-.743 3.372-1.87zm-7.186-2.428l6.12-2.505c-.336-.843-1.349-1.43-2.541-1.43-1.529 0-3.657 1.33-3.58 3.935z" fill="#EA4335"/><path d="M11.399 12.603V9.739h9.792c.096.5.145 1.09.145 1.729 0 2.149-.596 4.805-2.516 6.698-1.869 1.918-4.256 2.94-7.418 2.94-5.862 0-10.79-4.705-10.79-10.481C.611 4.848 5.54.143 11.401.143c3.242 0 5.552 1.254 7.288 2.888l-2.05 2.021c-1.245-1.15-2.931-2.045-5.242-2.045-4.28 0-7.627 3.4-7.627 7.618a7.573 7.573 0 007.628 7.618c2.776 0 4.357-1.1 5.37-2.097.821-.81 1.362-1.966 1.575-3.546l-6.946.003z" fill="#4285F4"/></g><defs><clipPath id="clip0"><path fill="#fff" transform="translate(.5)" d="M0 0h84v28H0z"/></clipPath></defs></svg>