<svg width="91" height="28" fill="none" xmlns="http://www.w3.org/2000/svg"><path d="M26.3 19.844c-.142-.34-.274-.7-.415-1.006l-.653-1.461-.027-.026c-1.94-4.2-4.014-8.47-6.211-12.67l-.089-.175c-.22-.412-.44-.867-.67-1.287-.282-.498-.556-1.032-1.006-1.54A4.672 4.672 0 0015.613.427a4.71 4.71 0 00-5.62 1.252c-.414.508-.723 1.042-1.005 1.54-.22.455-.441.902-.67 1.313l-.089.175c-2.162 4.2-4.27 8.47-6.212 12.67l-.053.052c-.194.455-.423.928-.644 1.435-.141.307-.282.64-.423 1.007a5.904 5.904 0 00.853 5.834A5.995 5.995 0 004.2 27.55c.965.393 2.016.53 3.05.398a7.434 7.434 0 002.805-.963c1.148-.638 2.25-1.566 3.486-2.905 1.235 1.34 2.364 2.267 3.485 2.914A7.441 7.441 0 0020.573 28a6.02 6.02 0 003.941-1.444 5.928 5.928 0 002.015-3.657 5.158 5.158 0 00-.23-3.062v.008zm-12.671 1.453c-1.518-1.925-2.506-3.693-2.841-5.206a4.512 4.512 0 01-.088-1.715c.061-.447.229-.84.458-1.173.53-.761 1.456-1.234 2.471-1.234.482-.014.96.09 1.391.304.431.214.802.53 1.08.921.229.35.397.735.45 1.182.088.507.052 1.093-.089 1.715-.335 1.487-1.323 3.272-2.832 5.206zm11.241 1.295c-.1.72-.39 1.403-.838 1.979a4.196 4.196 0 01-1.72 1.302c-.671.28-1.412.359-2.136.28a5.557 5.557 0 01-2.135-.735 13.769 13.769 0 01-3.203-2.712c1.853-2.275 2.973-4.35 3.397-6.195.203-.875.23-1.663.141-2.39a4.814 4.814 0 00-.759-1.924 4.718 4.718 0 00-1.73-1.488 4.763 4.763 0 00-2.232-.507c-1.632 0-3.088.752-3.97 1.986a4.51 4.51 0 00-.75 1.934 5.713 5.713 0 00.141 2.389c.424 1.846 1.57 3.946 3.397 6.212a12.617 12.617 0 01-3.203 2.73c-.732.42-1.43.639-2.135.726a4.226 4.226 0 01-3.086-.823 4.158 4.158 0 01-1.608-2.738c-.088-.7-.027-1.4.256-2.187.088-.28.22-.56.361-.893.195-.455.424-.927.645-1.4l.035-.061a285.304 285.304 0 016.15-12.609l.088-.175c.22-.42.441-.866.67-1.286.23-.446.477-.875.795-1.225a2.928 2.928 0 012.245-1.04 2.95 2.95 0 012.246 1.04c.309.35.565.779.794 1.225.22.42.441.875.67 1.286l.089.175a345.531 345.531 0 016.176 12.609l.027.026c.23.455.423.963.644 1.4.141.341.282.613.37.901.168.788.256 1.488.168 2.188zm12.283-1.488a4.46 4.46 0 01-1.927-.406 4.426 4.426 0 01-1.559-1.195 5.703 5.703 0 01-1.412-3.92 6.06 6.06 0 011.465-4.007 4.673 4.673 0 011.618-1.21 4.71 4.71 0 011.982-.418 3.82 3.82 0 011.852.422 3.783 3.783 0 011.413 1.258l.088-1.374h2.577v10.57h-2.586l-.088-1.54a3.975 3.975 0 01-1.473 1.352c-.6.318-1.27.48-1.95.468zm.67-2.52c.512 0 .962-.14 1.385-.393.389-.28.706-.648.953-1.094.22-.446.336-.98.336-1.575a2.97 2.97 0 00-.295-1.5 3 3 0 00-1.002-1.16 2.62 2.62 0 00-2.753 0c-.389.28-.706.647-.953 1.094a3.483 3.483 0 00-.336 1.575 2.97 2.97 0 00.295 1.5 3 3 0 001.002 1.16c.415.253.865.393 1.368.393zm9.838-11.182c0 .306-.053.586-.194.814a1.65 1.65 0 01-.591.56c-.256.14-.53.192-.812.192a1.69 1.69 0 01-.82-.192 1.618 1.618 0 01-.591-.56 1.582 1.582 0 01-.195-.814c0-.315.062-.595.195-.814.14-.262.344-.42.59-.56.257-.14.53-.201.821-.201a1.634 1.634 0 011.412.752c.128.255.192.538.185.823zm-3 13.387V10.237h2.806v10.57h-2.814l.008-.018zm10.306-7.787v.035c-.132-.061-.309-.088-.441-.114-.176-.035-.318-.035-.485-.035-.786 0-1.377.228-1.765.7-.424.481-.618 1.155-.618 2.021v5.19h-2.814v-10.57h2.585l.088 1.6c.283-.56.618-.98 1.094-1.295a2.753 2.753 0 011.597-.437c.203 0 .397.017.565.052.088.027.141.027.194.053v2.8zm1.13 7.787V5.897h2.806v5.687a4.443 4.443 0 011.411-1.207 4.463 4.463 0 012.883-.35 4.436 4.436 0 012.482 1.496 5.702 5.702 0 011.412 3.929 6.06 6.06 0 01-1.465 4.007 4.673 4.673 0 01-1.618 1.21 4.708 4.708 0 01-1.982.418 3.82 3.82 0 01-1.851-.422 3.784 3.784 0 01-1.414-1.258l-.088 1.374-2.576.026v-.018zm5.426-2.205c.503 0 .953-.14 1.377-.393.388-.28.705-.648.953-1.094.229-.446.335-.98.335-1.575 0-.586-.106-1.12-.336-1.566a3.29 3.29 0 00-.952-1.094 2.62 2.62 0 00-2.753 0c-.397.28-.706.647-.962 1.094a3.482 3.482 0 00-.335 1.575 2.97 2.97 0 00.294 1.5 3 3 0 001.003 1.16c.414.253.864.393 1.376.393zm6.627 2.214v-10.57h2.585l.088 1.374a3.482 3.482 0 011.335-1.248 3.522 3.522 0 011.789-.406 3.64 3.64 0 012.01.564 3.6 3.6 0 011.36 1.571c.309.665.477 1.488.477 2.406v6.335h-2.815v-5.967c0-.735-.168-1.313-.503-1.741-.335-.42-.794-.648-1.376-.648-.424 0-.794.088-1.121.28a2.192 2.192 0 00-.759.814c-.196.363-.293.77-.282 1.181v6.055H68.15zm11.047 0V5.888h2.814v5.688c.382-.51.877-.926 1.449-1.213a4.149 4.149 0 011.843-.441c.664-.01 1.323.13 1.926.406a4.426 4.426 0 011.559 1.195 5.72 5.72 0 011.403 3.92 6.05 6.05 0 01-1.465 4.008 4.673 4.673 0 01-1.618 1.21 4.71 4.71 0 01-1.982.417 3.82 3.82 0 01-1.851-.421 3.784 3.784 0 01-1.414-1.259l-.08 1.374-2.584.026zm5.453-2.214c.511 0 .961-.14 1.376-.393.397-.28.706-.648.962-1.094.22-.446.335-.98.335-1.575a2.97 2.97 0 00-.294-1.5 3 3 0 00-1.003-1.16 2.62 2.62 0 00-2.753 0c-.388.28-.706.647-.953 1.094a3.154 3.154 0 00-.335 1.575 2.97 2.97 0 00.294 1.5 3 3 0 001.003 1.16c.415.253.838.393 1.368.393z" fill="#FF385C"/></svg>