<svg width="32" height="32" fill="none" xmlns="http://www.w3.org/2000/svg"><path d="M.658 32h10.849a9.315 9.315 0 009.315-9.315H9.972A9.315 9.315 0 00.659 32z" fill="#F22BB2"/><path d="M1.143 9.315v13.699a9.315 9.315 0 009.315-9.315V0a9.315 9.315 0 00-9.315 9.315z" fill="#8C30F5"/><path d="M31.343 0h-10.85a9.315 9.315 0 00-9.315 9.315h10.85A9.315 9.315 0 0031.342 0z" fill="#FE9A22"/><path d="M31.343 22.137V8.438a9.315 9.315 0 00-9.316 9.315v13.7a9.315 9.315 0 009.316-9.316z" fill="#2EC5CE"/></svg>