<svg width="32" height="32" viewBox="0 0 32 32" fill="none" xmlns="http://www.w3.org/2000/svg">
<path d="M6.66671 1.33337H2.66671C2.31309 1.33337 1.97395 1.47385 1.7239 1.7239C1.47385 1.97395 1.33337 2.31309 1.33337 2.66671V29.3334C1.33337 29.687 1.47385 30.0261 1.7239 30.2762C1.97395 30.5262 2.31309 30.6667 2.66671 30.6667H6.66671V1.33337Z" fill="#D6B1FF"/>
<path d="M9.33337 30.6667H22.6667V1.33337H9.33337V30.6667ZM16 25.3334C15.6464 25.3334 15.3073 25.1929 15.0572 24.9428C14.8072 24.6928 14.6667 24.3537 14.6667 24C14.6667 23.6464 14.8072 23.3073 15.0572 23.0572C15.3073 22.8072 15.6464 22.6667 16 22.6667C16.3537 22.6667 16.6928 22.8072 16.9429 23.0572C17.1929 23.3073 17.3334 23.6464 17.3334 24C17.3334 24.3537 17.1929 24.6928 16.9429 24.9428C16.6928 25.1929 16.3537 25.3334 16 25.3334ZM16 6.66671C16.3537 6.66671 16.6928 6.80718 16.9429 7.05723C17.1929 7.30728 17.3334 7.64642 17.3334 8.00004C17.3334 8.35366 17.1929 8.6928 16.9429 8.94285C16.6928 9.1929 16.3537 9.33337 16 9.33337C15.6464 9.33337 15.3073 9.1929 15.0572 8.94285C14.8072 8.6928 14.6667 8.35366 14.6667 8.00004C14.6667 7.64642 14.8072 7.30728 15.0572 7.05723C15.3073 6.80718 15.6464 6.66671 16 6.66671ZM16 14.6667C16.3537 14.6667 16.6928 14.8072 16.9429 15.0572C17.1929 15.3073 17.3334 15.6464 17.3334 16C17.3334 16.3537 17.1929 16.6928 16.9429 16.9428C16.6928 17.1929 16.3537 17.3334 16 17.3334C15.6464 17.3334 15.3073 17.1929 15.0572 16.9428C14.8072 16.6928 14.6667 16.3537 14.6667 16C14.6667 15.6464 14.8072 15.3073 15.0572 15.0572C15.3073 14.8072 15.6464 14.6667 16 14.6667Z" fill="#8C30F5"/>
<path d="M29.3334 1.33337H25.3334V30.6667H29.3334C29.687 30.6667 30.0261 30.5262 30.2762 30.2762C30.5262 30.0261 30.6667 29.687 30.6667 29.3334V2.66671C30.6667 2.31309 30.5262 1.97395 30.2762 1.7239C30.0261 1.47385 29.687 1.33337 29.3334 1.33337Z" fill="#2EC5CE"/>
</svg>
