<svg width="134" height="40" viewBox="0 0 134 40" fill="none" xmlns="http://www.w3.org/2000/svg">
<path fill-rule="evenodd" clip-rule="evenodd" d="M84.1041 12.227L81.9252 8.57296L78.0577 10.4L75.8789 6.73512L72.0114 8.57296L69.8434 4.89729L65.976 6.73512L63.7971 3.07026L59.9296 4.9081L57.7616 1.23242L53.8833 3.07026L45.6798 29.5784L55.6481 32.6054C56.0236 31.4106 56.8174 30.3885 57.8861 29.7238C58.9547 29.0591 60.2277 28.7957 61.475 28.9811C62.7223 29.1665 63.8616 29.7885 64.6871 30.7347C65.5126 31.681 65.9697 32.889 65.976 34.1405V34.2486C65.9977 34.7243 65.9433 35.2 65.8016 35.6757L75.9333 38.7567L84.1041 12.227Z" fill="#D61920"/>
<path fill-rule="evenodd" clip-rule="evenodd" d="M54.2319 27.3946C53.9799 27.3532 53.7512 27.2236 53.5873 27.0292C53.4234 26.8348 53.3351 26.5885 53.3385 26.3351V13.3621C53.3371 13.2198 53.3643 13.0785 53.4185 12.9467C53.4727 12.8149 53.5529 12.6951 53.6544 12.5945C53.7558 12.4938 53.8765 12.4142 54.0094 12.3604C54.1422 12.3066 54.2845 12.2796 54.428 12.281H63.8733C64.4299 12.2796 64.9812 12.387 65.4959 12.597C66.0107 12.8071 66.4786 13.1156 66.8732 13.5051C67.2677 13.8946 67.5811 14.3574 67.7954 14.8671C68.0097 15.3768 68.1207 15.9234 68.1221 16.4756V26.3351C68.1218 26.4943 68.0861 26.6515 68.0175 26.7954C67.9489 26.9394 67.8491 27.0665 67.7253 27.1677C67.6014 27.2689 67.4565 27.3417 67.301 27.3809C67.1455 27.4202 66.9832 27.4248 66.8257 27.3946C66.5757 27.3509 66.3496 27.2203 66.1878 27.0261C66.0261 26.8319 65.9394 26.587 65.9433 26.3351V16.4865C65.9433 15.9417 65.7252 15.4192 65.337 15.034C64.9488 14.6488 64.4223 14.4324 63.8733 14.4324H61.8143V26.3243C61.8152 26.4691 61.7867 26.6127 61.7305 26.7464C61.6744 26.8801 61.5917 27.0013 61.4875 27.1027C61.3635 27.2247 61.2114 27.3151 61.0444 27.3659C60.8774 27.4168 60.7005 27.4266 60.5288 27.3946C60.2768 27.3532 60.0481 27.2236 59.8842 27.0292C59.7203 26.8348 59.632 26.5885 59.6355 26.3351V14.4324H55.5174V26.3243C55.5184 26.4833 55.4841 26.6406 55.4168 26.785C55.3495 26.9293 55.251 27.0571 55.1282 27.1593C55.0054 27.2616 54.8615 27.3356 54.7065 27.3763C54.5516 27.417 54.3895 27.4232 54.2319 27.3946ZM69.9415 33.0486C69.6876 33.007 69.4574 32.8758 69.2933 32.6791C69.1291 32.4825 69.0421 32.2336 69.0481 31.9783C69.0493 31.6947 69.1628 31.4229 69.3641 31.2216C69.5652 31.0179 69.8393 30.9013 70.1267 30.8973C71.0527 30.8973 71.848 30.3135 72.1094 29.4378L73.2316 25.7297L69.5602 13.5459C69.5164 13.4096 69.5003 13.2661 69.5128 13.1236C69.5253 12.9811 69.5662 12.8425 69.6331 12.7158C69.6999 12.5891 69.7915 12.4769 69.9024 12.3855C70.0133 12.2942 70.1414 12.2256 70.2792 12.1837C70.5536 12.1083 70.8468 12.1402 71.0981 12.273C71.3495 12.4057 71.5399 12.6292 71.6301 12.8973L74.3537 21.9783L77.1208 12.8973C77.2516 12.4 77.8072 12.0648 78.3737 12.1729L78.4499 12.1837C79.0382 12.3675 79.3651 12.9837 79.1907 13.5567L75.4104 26.054L74.212 30.054C73.9431 30.9148 73.4099 31.6708 72.6868 32.2162C71.9514 32.7635 71.0569 33.0594 70.1376 33.0594C70.072 33.0619 70.0064 33.0583 69.9415 33.0486Z" fill="#FEFEFE"/>
<path fill-rule="evenodd" clip-rule="evenodd" d="M3.35545 25.0271H5.49074C6.05994 25.0271 6.60583 24.8027 7.00832 24.4033C7.4108 24.0039 7.63692 23.4622 7.63692 22.8973V16.6595C7.63835 16.3798 7.58426 16.1026 7.47773 15.8437C7.37119 15.5847 7.21431 15.3492 7.01603 15.1504C6.81775 14.9516 6.58196 14.7936 6.32212 14.6852C6.06227 14.5769 5.78347 14.5204 5.50163 14.519H3.35545V25.0055V25.0271ZM2.01545 27.2541C1.75387 27.2103 1.51672 27.075 1.34689 26.8727C1.17705 26.6705 1.08573 26.4146 1.08944 26.1514V6.77843C1.08751 6.63021 1.11543 6.48309 1.17155 6.34572C1.22767 6.20835 1.31087 6.08347 1.41627 5.97843C1.54378 5.84704 1.70187 5.74874 1.87663 5.69219C2.0514 5.63564 2.23749 5.62256 2.41854 5.6541C2.96326 5.76221 3.35545 6.21626 3.35545 6.76762V12.2811H5.49074C6.06964 12.2797 6.64314 12.3916 7.17839 12.6105C7.71364 12.8293 8.20012 13.1508 8.60997 13.5565C9.01983 13.9622 9.345 14.4442 9.56687 14.9748C9.78873 15.5054 9.90294 16.0742 9.90293 16.6487V22.8865C9.90006 24.044 9.43543 25.1533 8.61065 25.9717C7.78586 26.7902 6.66805 27.2512 5.50163 27.2541H2.22245C2.14964 27.2584 2.07658 27.2548 2.00456 27.2433L2.01545 27.2541Z" fill="#333545"/>
<path fill-rule="evenodd" clip-rule="evenodd" d="M17.5834 14.4324C17.4611 14.4112 17.3372 14.4003 17.213 14.3999C16.9304 14.397 16.65 14.4502 16.3883 14.5562C16.1266 14.6622 15.8888 14.8189 15.6889 15.0173C15.4891 15.2156 15.3311 15.4515 15.2243 15.7112C15.1174 15.9709 15.0639 16.2492 15.0668 16.5297V23.027C15.0654 23.307 15.1199 23.5846 15.2273 23.8437C15.3346 24.1027 15.4926 24.338 15.6922 24.5361C15.8918 24.7341 16.129 24.891 16.39 24.9975C16.651 25.104 16.9308 25.1581 17.213 25.1567C17.7822 25.1567 18.3281 24.9323 18.7306 24.5329C19.1331 24.1335 19.3592 23.5918 19.3592 23.027V16.5405C19.3592 15.4918 18.6075 14.6161 17.5834 14.4324ZM16.4395 27.3513C15.4181 27.173 14.4929 26.6424 13.8272 25.8532C13.1615 25.0641 12.798 24.0669 12.8008 23.0378V16.5405C12.7989 15.9655 12.9126 15.3958 13.1352 14.8649C13.3578 14.334 13.6848 13.8525 14.0972 13.4486C14.5063 13.0428 14.9921 12.7211 15.5268 12.5022C16.0615 12.2833 16.6346 12.1714 17.213 12.1729C18.3803 12.1729 19.4998 12.6331 20.3252 13.4521C21.1506 14.2712 21.6143 15.3821 21.6143 16.5405V23.0378C21.6143 24.2053 21.1567 25.308 20.3179 26.1405C19.9105 26.5455 19.4265 26.8667 18.8937 27.0856C18.3608 27.3045 17.7897 27.4168 17.213 27.4161C16.9538 27.4172 16.6949 27.3955 16.4395 27.3513ZM29.2948 14.4432C29.1725 14.4219 29.0486 14.4111 28.9244 14.4107C28.6417 14.4079 28.3614 14.461 28.0996 14.567C27.8379 14.673 27.6002 14.8297 27.4003 15.0281C27.2004 15.2264 27.0425 15.4624 26.9356 15.7221C26.8288 15.9817 26.7753 16.26 26.7782 16.5405V23.0378C26.7768 23.3178 26.8313 23.5954 26.9386 23.8545C27.046 24.1135 27.204 24.3489 27.4036 24.5469C27.6032 24.745 27.8403 24.9018 28.1014 25.0083C28.3624 25.1148 28.6421 25.1689 28.9244 25.1675C29.2066 25.1689 29.4864 25.1148 29.7474 25.0083C30.0084 24.9018 30.2456 24.745 30.4452 24.5469C30.6448 24.3489 30.8028 24.1135 30.9101 23.8545C31.0175 23.5954 31.072 23.3178 31.0706 23.0378V16.5405C31.0706 15.5026 30.3189 14.627 29.2948 14.4432ZM28.1509 27.3513C27.1314 27.1707 26.2088 26.6392 25.5453 25.8502C24.8817 25.0613 24.5198 24.0654 24.5231 23.0378V16.5405C24.5248 15.9033 24.6666 15.2743 24.9386 14.6971C25.2107 14.12 25.6063 13.6087 26.098 13.199C26.5898 12.7893 27.1656 12.4911 27.7855 12.325C28.4054 12.159 29.0543 12.1292 29.687 12.2378C30.7086 12.4135 31.6349 12.9415 32.3025 13.7286C32.9702 14.5158 33.3364 15.5116 33.3366 16.5405V23.0378C33.3379 23.6153 33.223 24.1872 32.9985 24.72C32.774 25.2529 32.4445 25.7358 32.0293 26.1405C31.6219 26.5455 31.1379 26.8667 30.605 27.0856C30.0722 27.3045 29.5011 27.4168 28.9244 27.4161C28.6629 27.4161 28.4015 27.3945 28.1509 27.3513ZM37.1605 27.3945C36.8989 27.3507 36.6618 27.2154 36.4919 27.0132C36.3221 26.8109 36.2308 26.5551 36.2345 26.2918V6.77831C36.2345 6.47561 36.3434 6.18372 36.5613 5.97831C36.6898 5.85242 36.847 5.75917 37.0196 5.70647C37.1922 5.65377 37.3751 5.64318 37.5527 5.67561C38.0974 5.7621 38.5005 6.22696 38.5005 6.77831V18.3243L43.708 12.5297C43.9694 12.2486 44.3616 12.1189 44.7538 12.1837C44.9516 12.2166 45.1368 12.3014 45.2904 12.4293C45.4439 12.5573 45.56 12.7237 45.6268 12.9114C45.6935 13.099 45.7084 13.3009 45.6698 13.4962C45.6312 13.6914 45.5406 13.8728 45.4075 14.0216L41.4746 18.3783L45.5382 25.7621C45.6114 25.8866 45.6587 26.0244 45.6774 26.1674C45.6961 26.3103 45.6858 26.4556 45.6472 26.5945C45.605 26.7377 45.5341 26.871 45.4386 26.9862C45.3431 27.1014 45.225 27.1962 45.0915 27.2648C44.8609 27.3964 44.5906 27.4424 44.3289 27.3945C44.1662 27.3672 44.0115 27.3046 43.8759 27.2112C43.7403 27.1178 43.6272 26.9958 43.5445 26.854L39.8841 20.1729L38.4896 21.6972V26.2918C38.4896 26.59 38.3702 26.876 38.1577 27.0868C37.9453 27.2977 37.6571 27.4161 37.3566 27.4161C37.2803 27.4161 37.215 27.4161 37.1387 27.3945H37.1605ZM87.0673 27.3837C86.4547 27.2819 85.8727 27.0456 85.3638 26.6921C84.8549 26.3386 84.432 25.8768 84.1258 25.3405C83.9762 25.0777 83.937 24.7669 84.0169 24.4756C84.1041 24.1945 84.2893 23.9567 84.5398 23.8053C84.7725 23.6792 85.042 23.6372 85.3024 23.6864C85.6293 23.7405 85.9234 23.9351 86.0868 24.227C86.381 24.7243 86.8494 25.0486 87.4268 25.1459C87.7245 25.1972 88.0301 25.1811 88.3206 25.0987C88.6111 25.0163 88.8791 24.8698 89.1045 24.6702C89.5403 24.2702 89.7582 23.6972 89.7037 23.1351C89.6916 22.8469 89.6114 22.5656 89.4694 22.314C89.3275 22.0623 89.1278 21.8473 88.8867 21.6864L85.8363 19.5351C85.3393 19.1888 84.9254 18.7379 84.6241 18.2147C84.3228 17.6915 84.1415 17.1088 84.0932 16.508C84.0537 15.902 84.1539 15.2949 84.3861 14.733C84.6183 14.1711 84.9763 13.669 85.4332 13.2648C85.8789 12.8537 86.4113 12.5462 86.9917 12.3648C87.5721 12.1834 88.1859 12.1326 88.7886 12.2161C90.0741 12.4324 91.12 13.1675 91.7192 14.2053C91.8636 14.4647 91.9011 14.7695 91.8239 15.0557C91.7467 15.3419 91.5608 15.5873 91.3052 15.7405C91.0745 15.8721 90.8043 15.918 90.5426 15.8702C90.3798 15.8429 90.2251 15.7803 90.0896 15.6869C89.954 15.5934 89.8408 15.4715 89.7582 15.3297C89.6215 15.1003 89.4354 14.9038 89.2131 14.7543C88.9909 14.6047 88.738 14.5059 88.4727 14.4648C88.2012 14.416 87.9221 14.4307 87.6573 14.5077C87.3926 14.5846 87.1495 14.7217 86.9475 14.908C86.7502 15.0928 86.5962 15.3183 86.4964 15.5687C86.3967 15.819 86.3535 16.088 86.3701 16.3567C86.3919 16.8864 86.6969 17.4053 87.1545 17.708L90.2049 19.8161C90.7227 20.1759 91.1509 20.6483 91.4567 21.1973C91.7626 21.7462 91.938 22.3572 91.9697 22.9837C92.0202 23.6073 91.9234 24.2339 91.687 24.8138C91.4506 25.3937 91.0811 25.9109 90.608 26.3243C90.1478 26.7486 89.598 27.0658 88.9987 27.2528C88.3994 27.4398 87.7657 27.4919 87.1436 27.4053L87.0564 27.3837H87.0673ZM95.8154 27.4161C95.5538 27.3705 95.3166 27.2351 95.1453 27.0335C94.9741 26.832 94.8796 26.5771 94.8785 26.3134V6.79993C94.8771 6.65188 94.9054 6.50503 94.9618 6.36797C95.0182 6.23091 95.1016 6.10639 95.2071 6.0017C95.3126 5.897 95.4381 5.81424 95.5762 5.75825C95.7144 5.70226 95.8623 5.67417 96.0115 5.67561L96.2294 5.68642C96.7741 5.79453 97.1445 6.23777 97.1445 6.79993V12.3134H99.2907C99.8691 12.312 100.442 12.424 100.977 12.643C101.511 12.862 101.997 13.1836 102.406 13.5895C102.815 13.9953 103.139 14.4774 103.36 15.0079C103.581 15.5385 103.693 16.1071 103.692 16.681V26.3026C103.693 26.4659 103.658 26.6273 103.589 26.7755C103.52 26.9238 103.419 27.0551 103.293 27.1603C103.167 27.2655 103.02 27.342 102.861 27.3844C102.702 27.4267 102.536 27.4339 102.374 27.4053C101.829 27.308 101.437 26.8432 101.437 26.2918V16.6702C101.437 16.391 101.381 16.1146 101.273 15.8568C101.165 15.599 101.007 15.365 100.808 15.1681C100.608 14.9712 100.372 14.8153 100.111 14.7095C99.8509 14.6036 99.5721 14.5499 99.2907 14.5513H97.1445V26.3026C97.1458 26.467 97.1104 26.6295 97.0408 26.7787C96.9712 26.9278 96.8693 27.0598 96.7422 27.1652C96.6152 27.2706 96.4662 27.3468 96.3059 27.3883C96.1457 27.4298 95.9782 27.4357 95.8154 27.4053V27.4161ZM111.373 14.454C111.064 14.3984 110.747 14.411 110.443 14.4909C110.14 14.5708 109.858 14.716 109.618 14.9162C109.378 15.1165 109.185 15.3668 109.053 15.6494C108.921 15.932 108.854 16.2399 108.856 16.5513V23.0486C108.854 23.3277 108.909 23.6044 109.015 23.8628C109.122 24.1211 109.279 24.356 109.477 24.5539C109.676 24.7518 109.912 24.9088 110.172 25.016C110.431 25.1231 110.71 25.1783 110.991 25.1783C111.558 25.1783 112.102 24.9621 112.506 24.5621C112.707 24.3644 112.867 24.1287 112.976 23.8687C113.084 23.6088 113.139 23.3299 113.137 23.0486V16.5405C113.137 15.5026 112.397 14.6161 111.362 14.4432L111.373 14.454ZM110.218 27.3405C109.199 27.1622 108.277 26.6328 107.613 25.8457C106.949 25.0585 106.587 24.0641 106.59 23.0378V16.5405C106.59 15.9024 106.731 15.2721 107.002 14.6937C107.273 14.1152 107.669 13.6026 108.161 13.1917C108.653 12.7808 109.229 12.4816 109.85 12.3149C110.47 12.1483 111.12 12.1183 111.754 12.227C112.777 12.403 113.705 12.9326 114.373 13.722C115.041 14.5114 115.406 15.5097 115.403 16.5405V23.0378C115.404 23.6135 115.289 24.1836 115.064 24.7146C114.84 25.2455 114.51 25.7266 114.096 26.1297C113.596 26.6276 112.983 26.9979 112.307 27.2087C111.632 27.4196 110.915 27.4648 110.218 27.3405Z" fill="#333545"/>
<path fill-rule="evenodd" clip-rule="evenodd" d="M132.802 13.5567C132.839 13.4194 132.848 13.2761 132.83 13.1352C132.811 12.9942 132.764 12.8582 132.693 12.7351C132.61 12.6039 132.502 12.4904 132.375 12.4012C132.248 12.3121 132.104 12.2492 131.952 12.2162C131.671 12.1635 131.38 12.2192 131.139 12.3719C130.899 12.5246 130.725 12.7628 130.655 13.0378C130.655 13.0919 129.435 17.9676 128.477 21.6757L128.455 21.7513L128.433 21.6757L126.254 13.0486C126.212 12.838 126.106 12.6453 125.95 12.4964C125.794 12.3476 125.596 12.2497 125.383 12.2162C125.318 12.2036 125.252 12.1963 125.187 12.1946C124.685 12.1946 124.25 12.5405 124.108 13.0378C124.097 13.0919 122.877 17.9676 121.929 21.6757L121.907 21.7513L121.886 21.6757C120.96 17.9676 119.707 13.0919 119.707 13.0378C119.655 12.8309 119.545 12.6432 119.388 12.4974C119.231 12.3516 119.036 12.2539 118.824 12.2162C118.643 12.1844 118.456 12.1978 118.282 12.2552C118.107 12.3127 117.949 12.4124 117.823 12.5453C117.696 12.6782 117.605 12.8403 117.557 13.0168C117.51 13.1934 117.507 13.3789 117.55 13.5567L120.829 26.5621C120.891 26.8005 121.03 27.012 121.225 27.1644C121.42 27.3167 121.659 27.4014 121.907 27.4054C122.441 27.4054 122.866 27.0594 122.975 26.5621L125.154 17.9243L125.187 17.8486L125.208 17.9243C126.167 21.6757 127.387 26.573 127.387 26.573C127.452 26.8067 127.591 27.0136 127.783 27.1634C127.975 27.3132 128.211 27.398 128.455 27.4054C128.706 27.4132 128.952 27.3329 129.149 27.1786C129.346 27.0244 129.482 26.8061 129.533 26.5621L132.802 13.5567Z" fill="#333545"/>
</svg>
