<svg width="106" height="28" viewBox="0 0 106 28" fill="none" xmlns="http://www.w3.org/2000/svg">
<g clip-path="url(#clip0)">
<g clip-path="url(#clip1)">
<path d="M0.95031 28H10.4435C14.945 28 18.5941 24.3508 18.5941 19.8493H9.101C4.5995 19.8493 0.95031 23.4985 0.95031 28Z" fill="#F22BB2"/>
<path d="M1.37497 8.15069V20.137C5.87647 20.137 9.52565 16.4878 9.52565 11.9863V0C5.02416 0 1.37497 3.64919 1.37497 8.15069Z" fill="#8C30F5"/>
<path d="M27.7996 0H18.3065C13.805 0 10.1558 3.64919 10.1558 8.15068H19.6489C24.1504 8.15068 27.7996 4.5015 27.7996 0Z" fill="#FE9A22"/>
<path d="M27.7996 19.3698V7.38354C23.2981 7.38354 19.6489 11.0327 19.6489 15.5342V27.5205C24.1504 27.5205 27.7996 23.8713 27.7996 19.3698Z" fill="#2EC5CE"/>
</g>
<path d="M40.775 17.92V7.00002H37.575V21H45.775V17.92H40.775Z" fill="#0B0D17"/>
<path d="M54.2467 11V11.94C53.5867 11.18 52.6067 10.72 51.2667 10.72C48.6467 10.72 46.4867 13.02 46.4867 16C46.4867 18.98 48.6467 21.28 51.2667 21.28C52.6067 21.28 53.5867 20.82 54.2467 20.06V21H57.2467V11H54.2467ZM51.8667 18.44C50.4867 18.44 49.4867 17.5 49.4867 16C49.4867 14.5 50.4867 13.56 51.8667 13.56C53.2467 13.56 54.2467 14.5 54.2467 16C54.2467 17.5 53.2467 18.44 51.8667 18.44Z" fill="#0B0D17"/>
<path d="M65.3076 10.72C63.9876 10.72 62.9876 11.2 62.4476 11.94V11H59.4476V21H62.4476V15.54C62.4476 14.12 63.2076 13.48 64.3076 13.48C65.2676 13.48 66.0476 14.06 66.0476 15.3V21H69.0476V14.86C69.0476 12.16 67.3276 10.72 65.3076 10.72Z" fill="#0B0D17"/>
<path d="M78.3678 7.00002V11.94C77.7078 11.18 76.7278 10.72 75.3878 10.72C72.7678 10.72 70.6078 13.02 70.6078 16C70.6078 18.98 72.7678 21.28 75.3878 21.28C76.7278 21.28 77.7078 20.82 78.3678 20.06V21H81.3678V7.00002H78.3678ZM75.9878 18.44C74.6078 18.44 73.6078 17.5 73.6078 16C73.6078 14.5 74.6078 13.56 75.9878 13.56C77.3678 13.56 78.3678 14.5 78.3678 16C78.3678 17.5 77.3678 18.44 75.9878 18.44Z" fill="#0B0D17"/>
<path d="M85.0687 10.12C86.0487 10.12 86.8687 9.30002 86.8687 8.32002C86.8687 7.34002 86.0487 6.52002 85.0687 6.52002C84.0887 6.52002 83.2687 7.34002 83.2687 8.32002C83.2687 9.30002 84.0887 10.12 85.0687 10.12ZM83.5687 21H86.5687V11H83.5687V21Z" fill="#0B0D17"/>
<path d="M94.264 9.60002V6.72002C90.944 6.52002 89.404 8.20002 89.404 11H88.064V13.88H89.404V21H92.404V13.88H94.264V11H92.404C92.404 9.84002 93.144 9.50002 94.264 9.60002Z" fill="#0B0D17"/>
<path d="M102.056 11L100.176 17.12L97.9562 11H94.6562L98.6362 20.54C98.1962 21.76 97.5362 22.2 96.1362 22.2V25C98.9362 25.14 100.716 23.88 101.836 20.7L105.256 11H102.056Z" fill="#0B0D17"/>
</g>
<defs>
<clipPath id="clip0">
<rect width="105" height="28" fill="white" transform="translate(0.374969)"/>
</clipPath>
<clipPath id="clip1">
<rect width="28" height="28" fill="white" transform="translate(0.374969)"/>
</clipPath>
</defs>
</svg>
