<svg width="32" height="32" viewBox="0 0 32 32" fill="none" xmlns="http://www.w3.org/2000/svg">
<path d="M0.657532 32.0001H11.5068C16.6514 32.0001 20.8219 27.8296 20.8219 22.6851H9.9726C4.82803 22.6851 0.657532 26.8556 0.657532 32.0001Z" fill="#F22BB2"/>
<path d="M1.14288 9.31507V23.0137C6.28745 23.0137 10.458 18.8432 10.458 13.6986V0C5.31338 0 1.14288 4.1705 1.14288 9.31507Z" fill="#8C30F5"/>
<path d="M31.3425 0H20.4932C15.3486 0 11.1781 4.1705 11.1781 9.31507H22.0274C27.172 9.31507 31.3425 5.14457 31.3425 0Z" fill="#FE9A22"/>
<path d="M31.3425 22.1371V8.43848C26.1979 8.43848 22.0274 12.609 22.0274 17.7535V31.4522C27.172 31.4522 31.3425 27.2817 31.3425 22.1371Z" fill="#2EC5CE"/>
</svg>
